<?xml version="1.0" encoding="utf-8" standalone="no"?>
<!DOCTYPE svg PUBLIC "-//W3C//DTD SVG 1.1//EN"
  "http://www.w3.org/Graphics/SVG/1.1/DTD/svg11.dtd">
<svg xmlns:xlink="http://www.w3.org/1999/xlink" width="541.190836pt" height="425.99952pt" viewBox="0 0 541.190836 425.99952" xmlns="http://www.w3.org/2000/svg" version="1.1">
 <metadata>
  <rdf:RDF xmlns:dc="http://purl.org/dc/elements/1.1/" xmlns:cc="http://creativecommons.org/ns#" xmlns:rdf="http://www.w3.org/1999/02/22-rdf-syntax-ns#">
   <cc:Work>
    <dc:type rdf:resource="http://purl.org/dc/dcmitype/StillImage"/>
    <dc:date>2026-06-01T02:17:56.671764</dc:date>
    <dc:format>image/svg+xml</dc:format>
    <dc:creator>
     <cc:Agent>
      <dc:title>Matplotlib v3.10.8, https://matplotlib.org/</dc:title>
     </cc:Agent>
    </dc:creator>
   </cc:Work>
  </rdf:RDF>
 </metadata>
 <defs>
  <style type="text/css">*{stroke-linejoin: round; stroke-linecap: butt}</style>
 </defs>
 <g id="figure_1">
  <g id="patch_1">
   <path d="M 0 425.99952 
L 541.190836 425.99952 
L 541.190836 0 
L 0 0 
z
" style="fill: #ffffff"/>
  </g>
  <g id="axes_1">
   <g id="patch_2">
    <path d="M 29.935037 209.99952 
L 257.285403 209.99952 
L 257.285403 18.679218 
L 29.935037 18.679218 
z
" style="fill: #ffffff"/>
   </g>
   <g id="patch_3">
    <path d="M 46.531613 90.424331 
L 106.55211 90.424331 
Q 110.644417 90.424331 110.644417 86.980566 
L 110.644417 57.517239 
Q 110.644417 54.073474 106.55211 54.073474 
L 46.531613 54.073474 
Q 42.439307 54.073474 42.439307 57.517239 
L 42.439307 86.980566 
Q 42.439307 90.424331 46.531613 90.424331 
z
" clip-path="url(#p3727a28bfd)" style="fill: #f3f3f3; stroke: #4d4d4d; stroke-linejoin: miter"/>
   </g>
   <g id="patch_4">
    <path d="M 46.531613 168.865655 
L 106.55211 168.865655 
Q 110.644417 168.865655 110.644417 165.42189 
L 110.644417 135.958563 
Q 110.644417 132.514798 106.55211 132.514798 
L 46.531613 132.514798 
Q 42.439307 132.514798 42.439307 135.958563 
L 42.439307 165.42189 
Q 42.439307 168.865655 46.531613 168.865655 
z
" clip-path="url(#p3727a28bfd)" style="fill: #e6f4ef; stroke: #009e73; stroke-linejoin: miter"/>
   </g>
   <g id="patch_5">
    <path d="M 128.377745 130.601595 
L 177.030724 130.601595 
Q 181.12303 130.601595 181.12303 127.157829 
L 181.12303 93.868097 
Q 181.12303 90.424331 177.030724 90.424331 
L 128.377745 90.424331 
Q 124.285439 90.424331 124.285439 93.868097 
L 124.285439 127.157829 
Q 124.285439 130.601595 128.377745 130.601595 
z
" clip-path="url(#p3727a28bfd)" style="fill: #e7f0f7; stroke: #0072b2; stroke-linejoin: miter"/>
   </g>
   <g id="patch_6">
    <path d="M 198.856359 90.424331 
L 242.96233 90.424331 
Q 247.054637 90.424331 247.054637 86.980566 
L 247.054637 61.343645 
Q 247.054637 57.89988 242.96233 57.89988 
L 198.856359 57.89988 
Q 194.764052 57.89988 194.764052 61.343645 
L 194.764052 86.980566 
Q 194.764052 90.424331 198.856359 90.424331 
z
" clip-path="url(#p3727a28bfd)" style="fill: #ffffff; stroke: #4d4d4d; stroke-linejoin: miter"/>
   </g>
   <g id="patch_7">
    <path d="M 198.856359 165.039249 
L 242.96233 165.039249 
Q 247.054637 165.039249 247.054637 161.595484 
L 247.054637 135.958563 
Q 247.054637 132.514798 242.96233 132.514798 
L 198.856359 132.514798 
Q 194.764052 132.514798 194.764052 135.958563 
L 194.764052 161.595484 
Q 194.764052 165.039249 198.856359 165.039249 
z
" clip-path="url(#p3727a28bfd)" style="fill: #ffffff; stroke: #009e73; stroke-linejoin: miter"/>
   </g>
   <g id="patch_8">
    <path d="M 108.765279 74.825841 
Q 117.464443 89.466914 125.478296 102.954578 
" clip-path="url(#p3727a28bfd)" style="fill: none; stroke: #4d4d4d; stroke-width: 1.2; stroke-linecap: round"/>
    <path d="M 125.154493 98.49418 
L 125.478296 102.954578 
L 121.715695 100.537381 
z
" clip-path="url(#p3727a28bfd)" style="fill: #4d4d4d; stroke: #4d4d4d; stroke-width: 1.2; stroke-linecap: round"/>
   </g>
   <g id="patch_9">
    <path d="M 108.706582 148.074402 
Q 117.465171 132.514365 125.565659 118.123475 
" clip-path="url(#p3727a28bfd)" style="fill: none; stroke: #009e73; stroke-width: 1.2; stroke-linecap: round"/>
    <path d="M 121.860721 120.628157 
L 125.565659 118.123475 
L 125.346442 122.590235 
z
" clip-path="url(#p3727a28bfd)" style="fill: #009e73; stroke: #009e73; stroke-width: 1.2; stroke-linecap: round"/>
   </g>
   <g id="patch_10">
    <path d="M 179.308835 104.149554 
Q 187.943611 90.42422 195.863965 77.834491 
" clip-path="url(#p3727a28bfd)" style="fill: none; stroke: #4d4d4d; stroke-width: 1.2; stroke-linecap: round"/>
    <path d="M 192.041106 80.155212 
L 195.863965 77.834491 
L 195.426827 82.285211 
z
" clip-path="url(#p3727a28bfd)" style="fill: #4d4d4d; stroke: #4d4d4d; stroke-width: 1.2; stroke-linecap: round"/>
   </g>
   <g id="patch_11">
    <path d="M 179.243893 116.916308 
Q 187.943057 131.55738 195.956909 145.045045 
" clip-path="url(#p3727a28bfd)" style="fill: none; stroke: #009e73; stroke-width: 1.2; stroke-linecap: round"/>
    <path d="M 195.633107 140.584646 
L 195.956909 145.045045 
L 192.194309 142.627848 
z
" clip-path="url(#p3727a28bfd)" style="fill: #009e73; stroke: #009e73; stroke-width: 1.2; stroke-linecap: round"/>
   </g>
   <g id="matplotlib.axis_1"/>
   <g id="matplotlib.axis_2"/>
   <g id="text_1">
    <text style="font-weight: 700; font-size: 8px; font-family: 'DejaVu Sans'; fill: #222222" transform="translate(51.425612 69.946028)">target task</text>
    <text style="font-weight: 700; font-size: 8px; font-family: 'DejaVu Sans'; fill: #222222" transform="translate(45.894987 78.966778)">measured Tm</text>
   </g>
   <g id="text_2">
    <text style="font-weight: 700; font-size: 7.2px; font-family: 'DejaVu Sans'; fill: #222222" transform="translate(46.364299 148.617639)">computed task</text>
    <text style="font-weight: 700; font-size: 7.2px; font-family: 'DejaVu Sans'; fill: #222222" transform="translate(48.732987 156.680064)">stability label</text>
   </g>
   <g id="text_3">
    <text style="font-weight: 700; font-size: 7.8px; font-family: 'DejaVu Sans'; fill: #222222" transform="translate(137.614891 103.930982)">shared</text>
    <text style="font-weight: 700; font-size: 7.8px; font-family: 'DejaVu Sans'; fill: #222222" transform="translate(131.791094 112.665276)">sequence</text>
    <text style="font-weight: 700; font-size: 7.8px; font-family: 'DejaVu Sans'; fill: #222222" transform="translate(119.88025 121.399569)">representation</text>
   </g>
   <g id="text_4">
    <text style="font-weight: 700; font-size: 8px; font-family: 'DejaVu Sans'; text-anchor: middle; fill: #222222" x="220.909345" y="76.369606" transform="rotate(-0 220.909345 76.369606)">Tm head</text>
   </g>
   <g id="text_5">
    <text style="font-weight: 700; font-size: 8px; font-family: 'DejaVu Sans'; fill: #222222" transform="translate(205.87622 146.505398)">source</text>
    <text style="font-weight: 700; font-size: 8px; font-family: 'DejaVu Sans'; fill: #222222" transform="translate(209.78622 155.463648)">head</text>
   </g>
   <g id="text_6">
    <text style="font-size: 7.6px; font-family: 'DejaVu Sans'; fill: #4d4d4d" transform="translate(54.641079 102.61531)">57 training</text>
    <text style="font-size: 7.6px; font-family: 'DejaVu Sans'; fill: #4d4d4d" transform="translate(64.234891 111.125648)">labels</text>
   </g>
   <g id="text_7">
    <text style="font-size: 7.6px; font-family: 'DejaVu Sans'; fill: #009e73" transform="translate(49.063391 182.969837)">larger labeled</text>
    <text style="font-size: 7.6px; font-family: 'DejaVu Sans'; fill: #009e73" transform="translate(52.988079 191.480175)">variant sets</text>
   </g>
   <g id="text_8">
    <text style="font-size: 7.7px; font-family: 'DejaVu Sans'; text-anchor: middle; fill: #222222" x="143.61022" y="187.041084" transform="rotate(-0 143.61022 187.041084)">transfer learning maps computed-label signal into the Tm predictor</text>
   </g>
   <g id="text_9">
    <text style="font-weight: 700; font-size: 11px; font-family: 'DejaVu Sans'; text-anchor: start" x="7.2" y="15.558281" transform="rotate(-0 7.2 15.558281)">A</text>
   </g>
  </g>
  <g id="axes_2">
   <g id="patch_12">
    <path d="M 306.64047 209.99952 
L 533.990836 209.99952 
L 533.990836 18.679218 
L 306.64047 18.679218 
z
" style="fill: #ffffff"/>
   </g>
   <g id="patch_13">
    <path d="M 320.963543 136.341204 
L 365.069514 136.341204 
Q 369.161821 136.341204 369.161821 132.897438 
L 369.161821 95.7813 
Q 369.161821 92.337534 365.069514 92.337534 
L 320.963543 92.337534 
Q 316.871236 92.337534 316.871236 95.7813 
L 316.871236 132.897438 
Q 316.871236 136.341204 320.963543 136.341204 
z
" clip-path="url(#p5c2b5d89ab)" style="fill: #f3f3f3; stroke: #222222; stroke-linejoin: miter"/>
   </g>
   <g id="patch_14">
    <path d="M 389.168653 138.254407 
L 437.821631 138.254407 
Q 441.913938 138.254407 441.913938 134.810641 
L 441.913938 93.868097 
Q 441.913938 90.424331 437.821631 90.424331 
L 389.168653 90.424331 
Q 385.076346 90.424331 385.076346 93.868097 
L 385.076346 134.810641 
Q 385.076346 138.254407 389.168653 138.254407 
z
" clip-path="url(#p5c2b5d89ab)" style="fill: #e7f0f7; stroke: #222222; stroke-linejoin: miter"/>
   </g>
   <g id="patch_15">
    <path d="M 466.467778 92.337534 
L 515.120756 92.337534 
Q 519.213063 92.337534 519.213063 88.893769 
L 519.213063 59.430442 
Q 519.213063 55.986677 515.120756 55.986677 
L 466.467778 55.986677 
Q 462.375471 55.986677 462.375471 59.430442 
L 462.375471 88.893769 
Q 462.375471 92.337534 466.467778 92.337534 
z
" clip-path="url(#p5c2b5d89ab)" style="fill: #f3f3f3; stroke: #222222; stroke-linejoin: miter"/>
   </g>
   <g id="patch_16">
    <path d="M 466.467778 170.778858 
L 515.120756 170.778858 
Q 519.213063 170.778858 519.213063 167.335093 
L 519.213063 137.871766 
Q 519.213063 134.428001 515.120756 134.428001 
L 466.467778 134.428001 
Q 462.375471 134.428001 462.375471 137.871766 
L 462.375471 167.335093 
Q 462.375471 170.778858 466.467778 170.778858 
z
" clip-path="url(#p5c2b5d89ab)" style="fill: #e6f4ef; stroke: #222222; stroke-linejoin: miter"/>
   </g>
   <g id="patch_17">
    <path d="M 368.751635 114.339369 
Q 377.118278 114.339369 384.14328 114.339369 
" clip-path="url(#p5c2b5d89ab)" style="fill: none; stroke: #222222; stroke-width: 1.2; stroke-linecap: round"/>
    <path d="M 380.14328 112.339369 
L 384.14328 114.339369 
L 380.14328 116.339369 
z
" clip-path="url(#p5c2b5d89ab)" style="fill: #222222; stroke: #222222; stroke-width: 1.2; stroke-linecap: round"/>
   </g>
   <g id="patch_18">
    <path d="M 440.190493 111.855265 
Q 452.145298 94.249863 463.346412 77.754394 
" clip-path="url(#p5c2b5d89ab)" style="fill: none; stroke: #222222; stroke-width: 1.2; stroke-linecap: round"/>
    <path d="M 459.444751 79.940038 
L 463.346412 77.754394 
L 462.753931 82.187109 
z
" clip-path="url(#p5c2b5d89ab)" style="fill: #222222; stroke: #222222; stroke-width: 1.2; stroke-linecap: round"/>
   </g>
   <g id="patch_19">
    <path d="M 440.243779 116.779917 
Q 452.144075 133.470517 463.265494 149.068711 
" clip-path="url(#p5c2b5d89ab)" style="fill: none; stroke: #222222; stroke-width: 1.2; stroke-linecap: round"/>
    <path d="M 462.571789 144.650705 
L 463.265494 149.068711 
L 459.314866 146.972871 
z
" clip-path="url(#p5c2b5d89ab)" style="fill: #222222; stroke: #222222; stroke-width: 1.2; stroke-linecap: round"/>
   </g>
   <g id="patch_20">
    <path d="M 350.519091 197.5637 
L 494.659223 197.5637 
Q 498.75153 197.5637 498.75153 194.119935 
L 498.75153 176.135827 
Q 498.75153 172.692061 494.659223 172.692061 
L 350.519091 172.692061 
Q 346.426784 172.692061 346.426784 176.135827 
L 346.426784 194.119935 
Q 346.426784 197.5637 350.519091 197.5637 
z
" clip-path="url(#p5c2b5d89ab)" style="fill: #ffffff; stroke: #009e73; stroke-linejoin: miter"/>
   </g>
   <g id="matplotlib.axis_3"/>
   <g id="matplotlib.axis_4"/>
   <g id="text_10">
    <text style="font-size: 8px; font-family: 'DejaVu Sans'; text-anchor: middle; fill: #222222" x="343.016528" y="116.546869" transform="rotate(-0 343.016528 116.546869)">sequence</text>
   </g>
   <g id="text_11">
    <text style="font-weight: 700; font-size: 8px; font-family: 'DejaVu Sans'; fill: #222222" transform="translate(398.018892 112.067744)">shared</text>
    <text style="font-weight: 700; font-size: 8px; font-family: 'DejaVu Sans'; fill: #222222" transform="translate(395.266392 121.025994)">encoder</text>
   </g>
   <g id="text_12">
    <text style="font-size: 8px; font-family: 'DejaVu Sans'; fill: #222222" transform="translate(484.454892 71.890481)">Tm</text>
    <text style="font-size: 8px; font-family: 'DejaVu Sans'; fill: #222222" transform="translate(470.727392 80.848731)">prediction</text>
   </g>
   <g id="text_13">
    <text style="font-size: 7.2px; font-family: 'DejaVu Sans'; fill: #222222" transform="translate(462.620892 150.558967)">computed-label</text>
    <text style="font-size: 7.2px; font-family: 'DejaVu Sans'; fill: #222222" transform="translate(472.734079 158.621392)">prediction</text>
   </g>
   <g id="text_14">
    <text style="font-size: 7.4px; font-family: 'DejaVu Sans'; text-anchor: middle; fill: #222222" x="422.589157" y="187.169818" transform="rotate(-0 422.589157 187.169818)">model selection uses the experimental validation set</text>
   </g>
   <g id="text_15">
    <text style="font-weight: 700; font-size: 11px; font-family: 'DejaVu Sans'; text-anchor: start" x="283.905433" y="15.558281" transform="rotate(-0 283.905433 15.558281)">B</text>
   </g>
  </g>
  <g id="axes_3">
   <g id="patch_21">
    <path d="M 29.935037 418.79952 
L 257.285403 418.79952 
L 257.285403 227.479218 
L 29.935037 227.479218 
z
" style="fill: #ffffff"/>
   </g>
   <g id="patch_22">
    <path d="M 46.531613 291.571519 
L 106.55211 291.571519 
Q 110.644417 291.571519 110.644417 288.127754 
L 110.644417 262.490833 
Q 110.644417 259.047068 106.55211 259.047068 
L 46.531613 259.047068 
Q 42.439307 259.047068 42.439307 262.490833 
L 42.439307 288.127754 
Q 42.439307 291.571519 46.531613 291.571519 
z
" clip-path="url(#pf5273b7637)" style="fill: #e6f4ef; stroke: #009e73; stroke-linejoin: miter"/>
   </g>
   <g id="patch_23">
    <path d="M 46.531613 343.228001 
L 106.55211 343.228001 
Q 110.644417 343.228001 110.644417 339.784235 
L 110.644417 314.147315 
Q 110.644417 310.703549 106.55211 310.703549 
L 46.531613 310.703549 
Q 42.439307 310.703549 42.439307 314.147315 
L 42.439307 339.784235 
Q 42.439307 343.228001 46.531613 343.228001 
z
" clip-path="url(#pf5273b7637)" style="fill: #e7f0f7; stroke: #0072b2; stroke-linejoin: miter"/>
   </g>
   <g id="patch_24">
    <path d="M 46.531613 394.884482 
L 106.55211 394.884482 
Q 110.644417 394.884482 110.644417 391.440717 
L 110.644417 365.803796 
Q 110.644417 362.360031 106.55211 362.360031 
L 46.531613 362.360031 
Q 42.439307 362.360031 42.439307 365.803796 
L 42.439307 391.440717 
Q 42.439307 394.884482 46.531613 394.884482 
z
" clip-path="url(#pf5273b7637)" style="fill: #f8e7df; stroke: #d55e00; stroke-linejoin: miter"/>
   </g>
   <g id="matplotlib.axis_5"/>
   <g id="matplotlib.axis_6"/>
   <g id="text_16">
    <text style="font-weight: 700; font-size: 7.2px; font-family: 'DejaVu Sans'; text-anchor: middle; fill: #222222" x="76.541862" y="277.296044" transform="rotate(-0 76.541862 277.296044)">mutation effects</text>
   </g>
   <g id="text_17">
    <text style="font-size: 7.3px; font-family: 'DejaVu Sans'; fill: #222222" transform="translate(120.875183 269.149234)">mutation free energy (FEP)</text>
    <text style="font-size: 7.3px; font-family: 'DejaVu Sans'; fill: #222222" transform="translate(120.875183 277.323637)">structure-based mutation score</text>
    <text style="font-size: 7.3px; font-family: 'DejaVu Sans'; fill: #222222" transform="translate(120.875183 285.49804)">learned stability-change score</text>
   </g>
   <g id="text_18">
    <text style="font-weight: 700; font-size: 7.2px; font-family: 'DejaVu Sans'; text-anchor: middle; fill: #222222" x="76.541862" y="328.9244" transform="rotate(-0 76.541862 328.9244)">designed variants</text>
   </g>
   <g id="text_19">
    <text style="font-size: 7.3px; font-family: 'DejaVu Sans'; fill: #222222" transform="translate(120.875183 324.892917)">language-model variants + structure score</text>
    <text style="font-size: 7.3px; font-family: 'DejaVu Sans'; fill: #222222" transform="translate(120.875183 333.06732)">random variants + structure score</text>
   </g>
   <g id="text_20">
    <text style="font-weight: 700; font-size: 7.2px; font-family: 'DejaVu Sans'; text-anchor: middle; fill: #222222" x="76.541862" y="380.580882" transform="rotate(-0 76.541862 380.580882)">structural dynamics</text>
   </g>
   <g id="text_21">
    <text style="font-size: 7.3px; font-family: 'DejaVu Sans'; text-anchor: start; fill: #222222" x="120.875183" y="380.6366" transform="rotate(-0 120.875183 380.6366)">contact persistence from MD</text>
   </g>
   <g id="text_22">
    <text style="font-weight: 700; font-size: 11px; font-family: 'DejaVu Sans'; text-anchor: start" x="7.2" y="224.358281" transform="rotate(-0 7.2 224.358281)">C</text>
   </g>
  </g>
  <g id="axes_4">
   <g id="patch_25">
    <path d="M 306.64047 418.79952 
L 533.990836 418.79952 
L 533.990836 227.479218 
L 306.64047 227.479218 
z
" style="fill: #ffffff"/>
   </g>
   <g id="patch_26">
    <path d="M 324.373798 329.83558 
L 361.659259 329.83558 
Q 365.751565 329.83558 365.751565 326.391814 
L 365.751565 296.928488 
Q 365.751565 293.484722 361.659259 293.484722 
L 324.373798 293.484722 
Q 320.281492 293.484722 320.281492 296.928488 
L 320.281492 326.391814 
Q 320.281492 329.83558 324.373798 329.83558 
z
" clip-path="url(#p7da8bf3b42)" style="fill: #f3f3f3; stroke: #6f6f6f; stroke-linejoin: miter"/>
   </g>
   <g id="patch_27">
    <path d="M 365.341935 311.660151 
Q 369.161931 311.660151 371.640286 311.660151 
" clip-path="url(#p7da8bf3b42)" style="fill: none; stroke: #222222; stroke-width: 1.2; stroke-linecap: round"/>
    <path d="M 367.640286 309.660151 
L 371.640286 311.660151 
L 367.640286 313.660151 
z
" clip-path="url(#p7da8bf3b42)" style="fill: #222222; stroke: #222222; stroke-width: 1.2; stroke-linecap: round"/>
   </g>
   <g id="patch_28">
    <path d="M 376.664383 329.83558 
L 413.949843 329.83558 
Q 418.042149 329.83558 418.042149 326.391814 
L 418.042149 296.928488 
Q 418.042149 293.484722 413.949843 293.484722 
L 376.664383 293.484722 
Q 372.572076 293.484722 372.572076 296.928488 
L 372.572076 326.391814 
Q 372.572076 329.83558 376.664383 329.83558 
z
" clip-path="url(#p7da8bf3b42)" style="fill: #e7f0f7; stroke: #0072b2; stroke-linejoin: miter"/>
   </g>
   <g id="patch_29">
    <path d="M 417.632519 311.660151 
Q 421.452515 311.660151 423.93087 311.660151 
" clip-path="url(#p7da8bf3b42)" style="fill: none; stroke: #222222; stroke-width: 1.2; stroke-linecap: round"/>
    <path d="M 419.93087 309.660151 
L 423.93087 311.660151 
L 419.93087 313.660151 
z
" clip-path="url(#p7da8bf3b42)" style="fill: #222222; stroke: #222222; stroke-width: 1.2; stroke-linecap: round"/>
   </g>
   <g id="patch_30">
    <path d="M 428.954967 329.83558 
L 466.240427 329.83558 
Q 470.332734 329.83558 470.332734 326.391814 
L 470.332734 296.928488 
Q 470.332734 293.484722 466.240427 293.484722 
L 428.954967 293.484722 
Q 424.86266 293.484722 424.86266 296.928488 
L 424.86266 326.391814 
Q 424.86266 329.83558 428.954967 329.83558 
z
" clip-path="url(#p7da8bf3b42)" style="fill: #e6f4ef; stroke: #009e73; stroke-linejoin: miter"/>
   </g>
   <g id="patch_31">
    <path d="M 469.923103 311.660151 
Q 473.743099 311.660151 476.221455 311.660151 
" clip-path="url(#p7da8bf3b42)" style="fill: none; stroke: #222222; stroke-width: 1.2; stroke-linecap: round"/>
    <path d="M 472.221455 309.660151 
L 476.221455 311.660151 
L 472.221455 313.660151 
z
" clip-path="url(#p7da8bf3b42)" style="fill: #222222; stroke: #222222; stroke-width: 1.2; stroke-linecap: round"/>
   </g>
   <g id="patch_32">
    <path d="M 481.245551 329.83558 
L 518.531012 329.83558 
Q 522.623318 329.83558 522.623318 326.391814 
L 522.623318 296.928488 
Q 522.623318 293.484722 518.531012 293.484722 
L 481.245551 293.484722 
Q 477.153245 293.484722 477.153245 296.928488 
L 477.153245 326.391814 
Q 477.153245 329.83558 481.245551 329.83558 
z
" clip-path="url(#p7da8bf3b42)" style="fill: #ffffff; stroke: #222222; stroke-linejoin: miter"/>
   </g>
   <g id="matplotlib.axis_7"/>
   <g id="matplotlib.axis_8"/>
   <g id="text_23">
    <text style="font-size: 8px; font-family: 'DejaVu Sans'; fill: #222222" transform="translate(333.706528 309.388526)">train</text>
    <text style="font-size: 8px; font-family: 'DejaVu Sans'; fill: #222222" transform="translate(337.926528 318.346776)">57</text>
   </g>
   <g id="text_24">
    <text style="font-size: 8px; font-family: 'DejaVu Sans'; fill: #222222" transform="translate(389.377113 309.388526)">val</text>
    <text style="font-size: 8px; font-family: 'DejaVu Sans'; fill: #222222" transform="translate(387.672113 318.346776)">114</text>
   </g>
   <g id="text_25">
    <text style="font-weight: 700; font-size: 8px; font-family: 'DejaVu Sans'; fill: #222222" transform="translate(438.680197 309.388526)">test</text>
    <text style="font-weight: 700; font-size: 8px; font-family: 'DejaVu Sans'; fill: #222222" transform="translate(439.248322 318.346776)">396</text>
   </g>
   <g id="text_26">
    <text style="font-size: 8px; font-family: 'DejaVu Sans'; fill: #222222" transform="translate(487.231406 309.388526)">paired</text>
    <text style="font-size: 8px; font-family: 'DejaVu Sans'; fill: #222222" transform="translate(480.598906 318.346776)">bootstrap</text>
   </g>
   <g id="text_27">
    <text style="font-size: 8px; font-family: 'DejaVu Sans'; text-anchor: middle" x="420.315653" y="365.229835" transform="rotate(-0 420.315653 365.229835)">Final claims use held-out Tm test errors</text>
   </g>
   <g id="text_28">
    <text style="font-size: 7.5px; font-family: 'DejaVu Sans'; text-anchor: middle; fill: #6f6f6f" x="420.315653" y="384.361866" transform="rotate(-0 420.315653 384.361866)">All sources are compared on the same test examples</text>
   </g>
   <g id="text_29">
    <text style="font-weight: 700; font-size: 11px; font-family: 'DejaVu Sans'; text-anchor: start" x="283.905433" y="224.358281" transform="rotate(-0 283.905433 224.358281)">D</text>
   </g>
  </g>
 </g>
 <defs>
  <clipPath id="p3727a28bfd">
   <rect x="29.935037" y="18.679218" width="227.350367" height="191.320302"/>
  </clipPath>
  <clipPath id="p5c2b5d89ab">
   <rect x="306.64047" y="18.679218" width="227.350367" height="191.320302"/>
  </clipPath>
  <clipPath id="pf5273b7637">
   <rect x="29.935037" y="227.479218" width="227.350367" height="191.320302"/>
  </clipPath>
  <clipPath id="p7da8bf3b42">
   <rect x="306.64047" y="227.479218" width="227.350367" height="191.320302"/>
  </clipPath>
 </defs>
</svg>
